<svg xmlns="http://www.w3.org/2000/svg" xmlns:xlink="http://www.w3.org/1999/xlink" width="1020" zoomAndPan="magnify" viewBox="0 0 765 482.999988" height="644" preserveAspectRatio="xMidYMid meet" version="1.0"><defs><clipPath id="b3cf8ff45d"><path d="M 229.578125 279 L 432.9375 279 L 432.9375 482.25 L 229.578125 482.25 Z M 229.578125 279 " clip-rule="nonzero"/></clipPath><clipPath id="129d61e52d"><path d="M 717.367188 17 L 763.796875 17 L 763.796875 96 L 717.367188 96 Z M 717.367188 17 " clip-rule="nonzero"/></clipPath><clipPath id="aa6cbe7aa6"><path d="M 523.523438 283.476562 L 553.148438 283.476562 L 553.148438 327.527344 L 523.523438 327.527344 Z M 523.523438 283.476562 " clip-rule="nonzero"/></clipPath><clipPath id="4dd5404041"><path d="M 673.210938 76.449219 L 702.835938 76.449219 L 702.835938 120.496094 L 673.210938 120.496094 Z M 673.210938 76.449219 " clip-rule="nonzero"/></clipPath></defs><g clip-path="url(#b3cf8ff45d)"><path fill="#b1642b" d="M 229.734375 361.289062 C 230.65625 361.226562 231.59375 361.035156 232.503906 361.117188 C 242.292969 362.003906 252.085938 362.871094 261.863281 363.867188 C 268.214844 364.515625 274.542969 365.402344 280.890625 366.109375 C 285.546875 366.628906 286.511719 366.039062 286.78125 361.527344 C 287.3125 352.609375 287.484375 343.671875 287.949219 334.753906 C 288.265625 328.714844 288.707031 322.6875 289.328125 316.675781 C 290.511719 305.257812 291.90625 293.863281 293.097656 282.449219 C 293.34375 280.066406 294.292969 279.429688 296.613281 279.683594 C 308.636719 280.964844 320.667969 282.164062 332.707031 283.285156 C 334.882812 283.484375 335.375 284.375 335.214844 286.417969 C 334.472656 295.839844 333.96875 305.28125 333.152344 314.691406 C 332.902344 317.613281 333.878906 319.328125 336.507812 320.335938 C 344.324219 323.335938 351.382812 328.214844 359.847656 329.660156 C 361.140625 329.878906 362.273438 330.957031 363.515625 331.566406 C 365.21875 332.398438 366.886719 333.425781 368.695312 333.882812 C 371.636719 334.636719 374.738281 334.78125 377.675781 335.5625 C 384.625 337.410156 391.410156 337.773438 398.191406 334.769531 C 404.058594 332.164062 409.761719 332.765625 415.4375 335.800781 C 417.613281 336.964844 420.230469 337.425781 422.707031 337.886719 C 424.652344 338.253906 425.058594 339.121094 425.023438 340.980469 C 424.882812 347.457031 424.089844 354.085938 425.183594 360.371094 C 426.316406 366.859375 426.191406 372.296875 431.65625 379.273438 C 432.664062 381.820312 432.105469 383.519531 431.09375 385.886719 C 429.53125 389.53125 428.675781 393.574219 428.136719 397.535156 C 427.664062 400.980469 428.039062 404.546875 428.039062 408.824219 C 425.640625 407.535156 423.445312 406.472656 421.386719 405.1875 C 420.289062 404.503906 419.363281 403.488281 418.484375 402.511719 C 416.476562 400.277344 414.507812 400.113281 412.183594 402.140625 C 411.226562 402.96875 409.800781 403.226562 408.683594 403.90625 C 407.894531 404.390625 407.273438 405.152344 406.574219 405.789062 C 407.210938 406.464844 407.765625 407.265625 408.507812 407.808594 C 410.222656 409.054688 412.226562 409.957031 413.746094 411.386719 C 415.992188 413.519531 415.453125 415.585938 412.90625 417.324219 C 410.273438 419.121094 407.617188 420.996094 405.367188 423.234375 C 401.4375 427.140625 397.289062 430.304688 391.425781 430.347656 C 390.332031 430.351562 389.230469 430.742188 388.140625 430.996094 C 386.039062 431.484375 385.117188 432.789062 385.238281 434.972656 C 385.40625 437.890625 383.71875 439.683594 380.683594 439.921875 C 379.570312 440.007812 378.425781 439.832031 377.339844 440.019531 C 376.496094 440.164062 374.992188 440.765625 375.023438 441.027344 C 375.417969 444.699219 370.117188 447.222656 372.9375 451.363281 C 373.125 451.636719 372.59375 452.625 372.164062 453.035156 C 371.433594 453.726562 370.539062 454.246094 369.683594 454.800781 C 365.171875 457.726562 365.316406 457.816406 367.273438 462.628906 C 368.246094 465.015625 368.203125 467.792969 368.78125 470.359375 C 369.648438 474.191406 370.660156 477.992188 371.789062 482.527344 C 368.960938 481.847656 366.4375 481.5625 364.1875 480.621094 C 358.671875 478.324219 353.265625 475.742188 347.832031 473.230469 C 343.921875 471.417969 341.746094 468.273438 341.179688 464.03125 C 340.757812 460.914062 340.65625 457.730469 339.980469 454.671875 C 339.574219 452.839844 338.773438 450.445312 337.371094 449.609375 C 334.128906 447.675781 332.675781 444.726562 331.058594 441.664062 C 326.75 433.511719 322.6875 425.183594 317.851562 417.347656 C 312.203125 408.191406 303.085938 405.429688 292.851562 406.039062 C 289 406.261719 286.207031 408.726562 284 411.898438 C 282.5 414.046875 280.90625 416.234375 278.921875 417.882812 C 278.007812 418.644531 275.691406 418.761719 274.636719 418.125 C 270.738281 415.773438 266.585938 413.476562 263.515625 410.222656 C 260.78125 407.320312 258.6875 403.394531 257.464844 399.558594 C 253.582031 387.414062 246.375 377.558594 237.507812 368.75 C 235.082031 366.34375 232.242188 364.363281 229.589844 362.1875 C 229.636719 361.886719 229.6875 361.585938 229.734375 361.289062 " fill-opacity="1" fill-rule="nonzero"/></g><path fill="#b1642b" d="M 104.207031 322.65625 C 97.117188 321.296875 90.683594 319.988281 84.21875 318.855469 C 79.011719 317.941406 73.785156 317.136719 68.542969 316.507812 C 66.503906 316.261719 65.609375 315.355469 65.636719 313.472656 C 65.71875 307.207031 62.1875 302.078125 60.351562 296.414062 C 60.320312 296.324219 60.285156 296.203125 60.210938 296.144531 C 55.90625 292.59375 53.035156 287.730469 49.0625 283.890625 C 46.175781 281.105469 43.042969 278.554688 39.847656 276.121094 C 37.234375 274.128906 34.324219 272.511719 31.636719 270.601562 C 30.464844 269.769531 29.070312 268.796875 28.566406 267.570312 C 26.449219 262.421875 24.828125 257.066406 22.652344 251.949219 C 20.988281 248.046875 18.640625 244.441406 16.800781 240.609375 C 15.308594 237.5 14.164062 234.226562 12.773438 231.066406 C 11.667969 228.539062 12.746094 226.40625 14.09375 224.523438 C 15.996094 221.859375 15.699219 219.570312 13.957031 216.988281 C 12.179688 214.363281 10.714844 211.523438 9.113281 208.773438 C 9.34375 208.492188 9.574219 208.207031 9.804688 207.921875 C 11.039062 207.980469 12.269531 208.023438 13.5 208.105469 C 16.128906 208.285156 16.707031 207.304688 15.886719 204.914062 C 15.367188 203.398438 15.378906 201.640625 15.425781 200 C 15.5 197.242188 14.636719 196.300781 12.109375 196.785156 C 8.132812 197.546875 6.273438 195.886719 5.796875 191.832031 C 5.441406 188.769531 4.851562 185.636719 3.710938 182.800781 C 1.582031 177.53125 0.699219 172.324219 2.335938 166.769531 C 4 161.144531 3.832031 155.363281 3.28125 149.617188 C 3.023438 146.933594 3.640625 144.832031 5.234375 142.578125 C 9.730469 136.234375 12.363281 128.976562 14.679688 120.753906 C 31.652344 125.949219 48.585938 131.136719 65.773438 136.402344 C 63.851562 143.753906 62.015625 150.8125 60.152344 157.859375 C 57.429688 168.171875 54.613281 178.460938 52.019531 188.808594 C 51.6875 190.148438 52.042969 192.046875 52.792969 193.226562 C 71.082031 221.929688 89.582031 250.496094 107.714844 279.300781 C 110.515625 283.757812 111.867188 289.171875 113.519531 294.265625 C 113.9375 295.550781 113.242188 297.453125 112.515625 298.785156 C 111.167969 301.277344 109.597656 303.691406 107.804688 305.882812 C 105.566406 308.609375 105.261719 311.730469 105.039062 315.011719 C 104.863281 317.710938 104.460938 320.402344 104.207031 322.65625 " fill-opacity="1" fill-rule="nonzero"/><path fill="#b1642b" d="M 220.421875 34.972656 C 222.300781 35.605469 224.136719 36.605469 226.0625 36.832031 C 240.886719 38.539062 255.71875 40.210938 270.574219 41.660156 C 277.949219 42.378906 285.378906 42.628906 292.785156 43.023438 C 294.695312 43.125 295.394531 43.746094 295.183594 45.835938 C 292.957031 68.074219 290.835938 90.324219 288.667969 112.570312 C 288.546875 113.863281 288.289062 115.152344 288.03125 116.832031 C 282.265625 116.105469 276.660156 115.410156 271.058594 114.695312 C 246.769531 111.609375 222.476562 108.539062 198.203125 105.40625 C 195.96875 105.113281 194.949219 106.023438 194.59375 108.039062 C 194.332031 109.570312 193.632812 110.515625 191.925781 110.015625 C 186.335938 108.371094 180.863281 109.367188 175.453125 110.875 C 173.609375 111.394531 172.511719 110.953125 171.921875 109.15625 C 170.4375 104.625 168.878906 100.113281 167.5 95.542969 C 167.226562 94.648438 167.523438 93.53125 167.710938 92.550781 C 168.773438 86.96875 166.710938 84.65625 161.082031 85.160156 C 160.492188 85.210938 159.898438 85.234375 158.835938 85.296875 C 159.855469 80.667969 160.335938 76.089844 161.914062 71.929688 C 164 66.40625 161.300781 62.824219 158.148438 59.121094 C 157.953125 58.890625 157.730469 58.671875 157.480469 58.503906 C 148.625 52.589844 147.859375 43.597656 148.539062 34.253906 C 148.84375 30.046875 149.96875 25.898438 150.796875 21.296875 C 153.636719 21.957031 156.167969 22.527344 158.691406 23.140625 C 171.628906 26.277344 184.515625 29.617188 197.503906 32.492188 C 204.234375 33.984375 211.136719 34.707031 217.976562 35.667969 C 218.769531 35.773438 219.664062 35.171875 220.515625 34.898438 C 220.515625 34.898438 220.421875 34.972656 220.421875 34.972656 " fill-opacity="1" fill-rule="nonzero"/><path fill="#b1642b" d="M 188.339844 363.34375 C 193.832031 329.859375 199.257812 296.734375 204.765625 263.148438 C 233.582031 266.003906 262.207031 268.835938 291.292969 271.71875 C 290.988281 273.867188 290.640625 275.8125 290.445312 277.773438 C 288.667969 295.449219 286.816406 313.113281 285.210938 330.796875 C 284.621094 337.367188 284.894531 335.570312 284.804688 338.699219 C 284.191406 339.976562 284.472656 340.796875 284.421875 341.597656 C 284.035156 347.683594 283.675781 353.769531 283.511719 359.863281 C 283.441406 362.375 282.328125 362.9375 280.097656 362.695312 C 269.449219 361.542969 258.792969 360.445312 248.132812 359.351562 C 242.476562 358.773438 236.820312 358.179688 231.152344 357.71875 C 230.132812 357.632812 228.539062 357.820312 228.113281 358.472656 C 226.5 360.960938 224.414062 360.289062 222.195312 359.953125 C 215.671875 358.945312 209.136719 358.0625 202.609375 357.074219 C 200.390625 356.738281 199.269531 357.457031 198.765625 359.757812 C 197.714844 364.53125 197.601562 364.507812 192.835938 363.96875 C 191.464844 363.804688 190.101562 363.585938 188.339844 363.34375 " fill-opacity="1" fill-rule="nonzero"/><path fill="#b1642b" d="M 659.882812 456.414062 C 659.34375 454.039062 660.140625 451.390625 660.015625 448.878906 C 659.902344 446.542969 659.894531 443.996094 658.949219 441.949219 C 655.296875 434.015625 651.289062 426.257812 647.417969 418.429688 C 643.410156 410.332031 639.550781 402.15625 635.3125 394.179688 C 633.882812 391.496094 631.886719 389.445312 632.996094 385.886719 C 635.058594 379.3125 629.679688 373.570312 622.105469 375.90625 C 622.042969 376.394531 621.976562 376.890625 621.917969 377.398438 C 621.382812 381.691406 620.996094 381.925781 616.625 381.109375 C 613.753906 380.578125 610.839844 380.261719 607.984375 379.667969 C 607.296875 379.527344 606.75 378.667969 606.144531 378.136719 L 605.140625 378.246094 C 605.097656 378.878906 603.363281 379.832031 602.359375 379.894531 C 594.648438 380.363281 586.929688 380.722656 579.210938 380.976562 C 572.757812 381.1875 572.757812 381.101562 570.53125 374.875 C 569.5 375.074219 568.625 375.265625 567.742188 375.398438 C 559.511719 376.652344 551.289062 377.949219 543.046875 379.097656 C 540.136719 379.507812 537.167969 379.542969 534.226562 379.722656 C 532.148438 379.839844 531.570312 380.621094 532.472656 382.667969 C 534.910156 388.234375 535.375 388.605469 541.359375 387.75 C 543.96875 387.378906 546.539062 386.773438 549.132812 386.3125 C 550.015625 386.15625 551.070312 385.773438 551.804688 386.074219 C 557.015625 388.203125 563.035156 388.066406 567.226562 393.203125 C 569.179688 395.597656 573.417969 396.492188 576.804688 397.1875 C 578.308594 397.496094 580.371094 395.789062 581.992188 394.710938 C 588.578125 390.347656 596.144531 392.59375 601.351562 397.144531 C 604.691406 400.0625 608.308594 402.671875 611.695312 405.539062 C 612.6875 406.378906 613.90625 407.566406 614.046875 408.710938 C 614.664062 413.847656 615.015625 419.019531 615.273438 424.195312 C 615.382812 426.390625 616.144531 427.867188 618.203125 428.675781 C 620.253906 429.488281 621.15625 430.894531 620.820312 433.207031 C 619.976562 438.886719 622.203125 443.285156 626.691406 446.695312 C 627.40625 447.230469 628.5 447.972656 628.5 448.621094 C 628.511719 451.730469 630.679688 453.195312 632.644531 454.957031 C 633.414062 455.652344 634.050781 456.800781 634.210938 457.828125 C 634.644531 460.648438 636.433594 461.757812 638.851562 462.828125 C 640.855469 463.71875 642.789062 465.308594 644.113281 467.074219 C 645.738281 469.226562 646.972656 471.789062 647.871094 474.347656 C 648.695312 476.71875 650.140625 477.5625 652.203125 476.742188 C 653.78125 476.113281 655.691406 475.023438 656.339844 473.617188 C 658.835938 468.21875 661.328125 462.78125 659.882812 456.414062 " fill-opacity="1" fill-rule="nonzero"/><path fill="#b1642b" d="M 631.503906 345.945312 C 627.851562 343.265625 625.722656 339.5625 623.546875 335.742188 C 621.660156 332.441406 619.574219 329.078125 616.894531 326.433594 C 609.820312 319.429688 602.339844 312.832031 595.097656 305.996094 C 592.332031 303.386719 588.347656 301.421875 589.886719 295.929688 C 578.738281 296.976562 568.195312 297.964844 557.34375 298.980469 C 559.75 308.449219 561.945312 317.105469 564.140625 325.757812 C 565.632812 331.632812 566.8125 337.554688 570.472656 342.722656 C 571.632812 344.359375 571.261719 347.179688 571.34375 349.464844 C 571.476562 353.089844 571.0625 356.757812 571.503906 360.332031 C 572.054688 364.851562 573.484375 369.269531 574.058594 373.789062 C 574.472656 377.019531 575.984375 377.636719 578.867188 377.484375 C 586.585938 377.0625 594.316406 376.859375 602.039062 376.617188 C 603.347656 376.574219 605.296875 376 605.140625 378.246094 L 606.144531 378.136719 C 606.695312 377.519531 607.160156 376.539062 607.828125 376.359375 C 608.847656 376.09375 610.039062 376.273438 611.121094 376.460938 C 613.375 376.855469 615.601562 377.378906 618.027344 377.890625 C 618.246094 376.957031 618.582031 376.273438 618.53125 375.621094 C 618.289062 372.054688 620.539062 371.660156 623.234375 371.832031 C 625.210938 371.953125 627.171875 372.160156 629.320312 372.339844 C 629.28125 364.242188 629.761719 356.605469 632.433594 349.25 C 632.765625 348.34375 632.257812 346.496094 631.503906 345.945312 " fill-opacity="1" fill-rule="nonzero"/><path fill="#b1642b" d="M 130.46875 248.457031 C 154.140625 253.132812 177.582031 257.757812 201.363281 262.453125 C 195.878906 296 190.445312 329.222656 184.945312 362.867188 C 180.625 362.3125 176.636719 361.847656 172.664062 361.285156 C 168.132812 360.644531 163.59375 360.070312 159.117188 359.175781 C 156.898438 358.730469 154.609375 357.960938 152.703125 356.773438 C 139.320312 348.476562 126.039062 340.035156 112.726562 331.628906 C 111.953125 331.140625 111.195312 330.625 110.460938 330.078125 C 106.390625 327.023438 106.425781 327.023438 107.636719 322.277344 C 107.960938 321.007812 108.261719 319.675781 108.21875 318.382812 C 108.050781 312.859375 109.527344 307.882812 113.285156 303.832031 C 117.875 298.894531 118.183594 293.691406 115.085938 287.929688 C 113.613281 285.179688 113.476562 282.613281 114.824219 279.351562 C 116.183594 276.054688 115.898438 272.007812 115.984375 268.285156 C 116.089844 263.554688 116.460938 263.167969 120.796875 264.789062 C 126.019531 266.742188 127.046875 266.105469 128.0625 260.5 C 128.769531 256.621094 129.605469 252.761719 130.46875 248.457031 " fill-opacity="1" fill-rule="nonzero"/><path fill="#b1642b" d="M 124.476562 262.363281 C 122.648438 261.75 121.414062 261.335938 120.1875 260.925781 C 115.507812 259.351562 112.710938 261.304688 112.542969 266.320312 C 112.441406 269.367188 112.472656 272.417969 112.378906 275.460938 C 112.351562 276.335938 112.085938 277.199219 111.765625 279.019531 C 107.953125 273.085938 104.621094 267.90625 101.300781 262.722656 C 88.25 242.359375 75.207031 221.996094 62.164062 201.632812 C 60.0625 198.347656 57.882812 195.109375 55.886719 191.761719 C 55.433594 191.007812 55.300781 189.808594 55.527344 188.949219 C 59.890625 172.234375 64.328125 155.542969 68.765625 138.847656 C 68.863281 138.472656 69.125 138.140625 69.09375 138.199219 C 94.378906 143.8125 119.457031 149.386719 145 155.058594 C 138.171875 190.742188 131.371094 226.308594 124.476562 262.363281 " fill-opacity="1" fill-rule="nonzero"/><path fill="#b1642b" d="M 217.363281 186.253906 C 218.851562 186.402344 219.941406 186.488281 221.027344 186.625 C 228.757812 187.574219 236.488281 188.511719 244.210938 189.496094 C 249.851562 190.214844 255.488281 191.003906 261.132812 191.746094 C 264.613281 192.199219 268.089844 192.726562 271.585938 193.011719 C 273.011719 193.125 274.484375 192.679688 275.492188 192.542969 C 276.652344 193.074219 277.535156 193.734375 278.496094 193.878906 C 287.742188 195.277344 296.976562 196.675781 306.246094 197.859375 C 308.683594 198.175781 309.539062 199.011719 309.375 201.484375 C 308.453125 215.671875 307.660156 229.863281 306.792969 244.054688 C 306.289062 252.351562 305.746094 260.652344 305.179688 269.59375 C 271.863281 266.300781 238.804688 263.035156 205.328125 259.726562 C 209.375 235.015625 213.355469 210.746094 217.363281 186.253906 " fill-opacity="1" fill-rule="nonzero"/><path fill="#b1642b" d="M 287.894531 120.292969 C 285.523438 143.894531 283.1875 167.101562 280.777344 191.101562 C 249.351562 186.914062 218.253906 182.765625 186.636719 178.546875 C 187.382812 174.390625 188.121094 170.652344 188.710938 166.882812 C 191.351562 150.027344 193.90625 133.171875 196.570312 116.320312 C 197.765625 108.765625 197.835938 108.886719 205.335938 109.847656 C 230.203125 113.035156 255.078125 116.140625 279.957031 119.273438 C 282.542969 119.601562 285.132812 119.933594 287.894531 120.292969 " fill-opacity="1" fill-rule="nonzero"/><path fill="#b1642b" d="M 106.582031 143.492188 C 98.082031 141.417969 89.929688 139.75 81.972656 137.425781 C 62.101562 131.613281 42.320312 125.503906 22.5 119.515625 C 22.308594 119.457031 22.113281 119.386719 21.921875 119.339844 C 14.496094 117.375 14.476562 117.375 15.007812 109.761719 C 15.167969 107.4375 15.378906 105.09375 15.824219 102.8125 C 16.089844 101.464844 16.714844 100.117188 17.449219 98.941406 C 19.425781 95.796875 22.015625 92.953125 23.519531 89.609375 C 28.679688 78.136719 33.507812 66.519531 38.382812 54.925781 C 39.285156 52.777344 40.148438 51.539062 42.847656 52.488281 C 45.601562 53.453125 49.15625 52.34375 51 55.574219 C 51.730469 56.851562 52.488281 58.285156 52.601562 59.695312 C 53.019531 65.019531 55.1875 67.566406 60.636719 68.542969 C 61.53125 68.703125 62.464844 68.863281 63.363281 68.777344 C 67.226562 68.390625 70.367188 69.460938 73.816406 71.589844 C 78.875 74.714844 84.75 73.410156 90.34375 72.019531 C 91.980469 71.617188 93.800781 71.5625 95.476562 71.800781 C 100.058594 72.449219 104.617188 73.28125 109.167969 74.160156 C 111.507812 74.613281 113.800781 75.316406 116.113281 75.90625 C 119.253906 76.699219 122.527344 77.167969 125.472656 78.40625 C 127.273438 79.167969 129.132812 80.855469 129.949219 82.597656 C 130.96875 84.792969 128.480469 85.410156 126.996094 86.414062 C 123.738281 88.609375 119.8125 90.40625 117.625 93.429688 C 115.613281 96.214844 115.457031 100.375 114.621094 103.960938 C 114.324219 105.21875 114.609375 106.601562 114.339844 107.867188 C 112.113281 118.285156 109.824219 128.683594 107.546875 139.089844 C 107.273438 140.363281 106.988281 141.632812 106.582031 143.492188 " fill-opacity="1" fill-rule="nonzero"/><path fill="#b1642b" d="M 131.464844 245.15625 C 137.105469 215.144531 142.65625 185.636719 148.289062 155.648438 C 152.089844 156.390625 155.824219 157.082031 159.546875 157.859375 C 167.203125 159.453125 174.835938 161.171875 182.519531 162.675781 C 184.976562 163.152344 185.996094 163.898438 185.289062 166.65625 C 184.433594 169.992188 184.140625 173.464844 183.589844 176.871094 C 182.898438 181.191406 183.121094 181.457031 187.527344 182.046875 C 195.277344 183.09375 203.027344 184.171875 210.773438 185.25 C 211.65625 185.375 212.53125 185.605469 213.910156 185.894531 C 209.941406 210.1875 205.988281 234.378906 201.957031 259.050781 C 178.292969 254.386719 154.953125 249.78125 131.464844 245.15625 " fill-opacity="1" fill-rule="nonzero"/><path fill="#b1642b" d="M 410.417969 217.0625 C 410.335938 218.324219 410.179688 219.578125 410.203125 220.839844 C 410.21875 221.585938 410.917969 222.570312 410.632812 223.027344 C 408.570312 226.332031 410.246094 228.914062 412.511719 230.824219 C 415.503906 233.359375 415.960938 236.117188 415.726562 239.890625 C 415.128906 249.410156 415.183594 258.976562 414.988281 268.523438 C 414.96875 269.511719 414.984375 270.503906 414.984375 271.867188 C 413.734375 271.867188 412.757812 271.875 411.78125 271.867188 C 385.957031 271.78125 360.140625 271.816406 334.320312 271.550781 C 325.929688 271.460938 317.546875 270.597656 308.683594 270.058594 C 309.804688 251.53125 310.894531 233.523438 312.015625 215.015625 C 314.003906 215.1875 315.757812 215.300781 317.503906 215.503906 C 344.316406 218.636719 371.203125 219.601562 398.164062 218.378906 C 402.28125 218.191406 406.375 217.550781 410.476562 217.121094 L 410.417969 217.0625 " fill-opacity="1" fill-rule="nonzero"/><path fill="#b1642b" d="M 471.035156 62.214844 C 466.46875 64.519531 462.292969 66.378906 458.390625 68.695312 C 456.324219 69.925781 454.304688 71.679688 453.019531 73.683594 C 451.074219 76.710938 449.898438 80.222656 448.171875 83.398438 C 447.523438 84.585938 446.304688 85.503906 445.214844 86.378906 C 443.21875 87.980469 442.664062 90.003906 442.464844 92.507812 C 442.300781 94.589844 441.667969 97.003906 440.378906 98.5625 C 436.675781 103.042969 435.476562 107.582031 437.574219 113.226562 C 438.605469 115.996094 438.375 119.21875 438.777344 122.238281 C 439.558594 128.066406 441.132812 129.808594 446.929688 130.695312 C 449.433594 131.078125 450.511719 132.386719 451.816406 134.496094 C 453.453125 137.140625 456.339844 139 458.558594 141.316406 C 459.613281 142.421875 460.382812 143.808594 461.273438 145.0625 C 461.054688 145.347656 460.828125 145.628906 460.601562 145.914062 C 438.109375 146.835938 415.613281 147.757812 393.242188 148.683594 C 393.242188 144.695312 393.257812 141.085938 393.242188 137.480469 C 393.210938 130.378906 393.246094 123.273438 393.082031 116.175781 C 393 112.6875 391.652344 109.703125 388.777344 107.4375 C 388.109375 106.90625 387.660156 105.472656 387.835938 104.605469 C 388.980469 99.066406 389.015625 93.617188 388.164062 87.976562 C 387.542969 83.84375 388.347656 79.511719 388.265625 75.277344 C 388.234375 73.59375 387.863281 71.734375 387.058594 70.273438 C 383.09375 63.078125 384.207031 55.300781 384.179688 47.292969 C 386.050781 47.292969 387.933594 47.382812 389.800781 47.277344 C 397.21875 46.839844 404.335938 47.792969 411.09375 51.117188 C 415.371094 53.226562 419.949219 53.851562 424.75 53.320312 C 430.5625 52.671875 436.117188 54.015625 441.324219 56.492188 C 448.1875 59.746094 455.078125 61.699219 462.820312 59.921875 C 465.378906 59.332031 468.652344 59.074219 471.035156 62.214844 " fill-opacity="1" fill-rule="nonzero"/><path fill="#b1642b" d="M 287.945312 154.566406 C 289.742188 136.488281 291.503906 118.84375 293.210938 101.734375 C 323.523438 102.984375 353.523438 104.222656 383.15625 105.449219 C 384.601562 107.265625 386.515625 109.050781 387.617188 111.246094 C 388.804688 113.605469 389.800781 116.339844 389.871094 118.9375 C 390.226562 131.3125 390.707031 143.710938 387.71875 155.917969 C 387.128906 158.3125 387.289062 160.882812 387.101562 163.464844 C 383.890625 162.59375 381.007812 161.589844 378.046875 161.089844 C 375.785156 160.714844 373.238281 160.402344 371.160156 161.089844 C 368.449219 161.992188 366.355469 161.433594 364.320312 160 C 361.527344 158.027344 358.535156 157.402344 355.132812 157.570312 C 333.78125 158.613281 312.503906 157.398438 291.28125 155.085938 C 290.289062 154.976562 289.3125 154.777344 287.945312 154.566406 " fill-opacity="1" fill-rule="nonzero"/><path fill="#b1642b" d="M 140.75 18.792969 C 141.371094 18.730469 141.585938 18.65625 141.769531 18.699219 C 148.773438 20.351562 147.78125 19.792969 146.410156 25.660156 C 144.300781 34.710938 144.105469 43.59375 147.59375 52.289062 C 148.417969 54.34375 150.035156 56.144531 151.523438 57.855469 C 152.707031 59.222656 154.367188 60.171875 155.605469 61.503906 C 158.128906 64.214844 160.125 66.882812 158.492188 71.191406 C 156.964844 75.230469 156.4375 79.65625 155.535156 83.929688 C 154.886719 87 156.121094 88.578125 159.234375 88.761719 C 159.9375 88.804688 160.652344 88.71875 161.359375 88.667969 C 164.65625 88.464844 164.625 88.640625 164.332031 91.992188 C 164.152344 94.132812 164.429688 96.398438 164.945312 98.492188 C 165.824219 102.035156 166.964844 105.523438 168.164062 108.972656 C 170.085938 114.484375 171.671875 115.394531 177.300781 113.996094 C 181.6875 112.910156 186.027344 112.050781 190.515625 113.234375 C 191.386719 113.460938 192.261719 113.65625 193.386719 113.917969 C 191.058594 129.277344 188.746094 144.507812 186.382812 160.050781 C 179.839844 158.675781 173.421875 157.335938 167 155.976562 C 149.214844 152.21875 131.441406 148.417969 113.636719 144.746094 C 111.035156 144.210938 110.089844 143.320312 110.730469 140.539062 C 113.167969 129.960938 115.5 119.359375 117.664062 108.722656 C 118.308594 105.570312 118.210938 102.277344 118.578125 99.058594 C 118.816406 96.941406 119.902344 95.511719 121.902344 94.363281 C 125.292969 92.410156 128.429688 90.011719 131.601562 87.699219 C 133.691406 86.171875 134.695312 82.296875 132.886719 80.289062 C 127.664062 74.511719 129.664062 68.035156 130.910156 61.859375 C 133.070312 51.125 135.898438 40.519531 138.398438 29.847656 C 139.25 26.203125 139.960938 22.523438 140.75 18.792969 " fill-opacity="1" fill-rule="nonzero"/><path fill="#b1642b" d="M 312.769531 211.222656 C 312.769531 207.023438 312.65625 202.871094 312.804688 198.726562 C 312.902344 196.128906 311.8125 195.152344 309.332031 194.835938 C 301.878906 193.878906 294.449219 192.753906 287.011719 191.667969 C 285.605469 191.46875 284.175781 191.417969 284.414062 189.222656 C 285.507812 179.035156 286.5 168.835938 287.570312 158.230469 C 292.191406 158.703125 296.582031 159.296875 300.992188 159.578125 C 318.933594 160.714844 336.878906 162.300781 354.882812 160.9375 C 357.667969 160.726562 360.058594 161.199219 362.339844 162.808594 C 365.230469 164.835938 368.332031 165.378906 371.875 164.453125 C 377 163.109375 381.601562 165.625 386.324219 167.027344 C 386.65625 167.128906 387.019531 167.5 387.164062 167.832031 C 390.980469 176.886719 394.910156 185.894531 398.464844 195.050781 C 399.386719 197.421875 399.074219 200.261719 399.402344 202.882812 C 399.863281 206.589844 400.964844 210.019531 403.878906 212.628906 C 404.292969 213 404.46875 213.628906 404.753906 214.132812 C 400.011719 216.890625 322.855469 214.339844 312.769531 211.222656 " fill-opacity="1" fill-rule="nonzero"/><path fill="#b1642b" d="M 83.125 1.378906 C 86.789062 2.40625 90.457031 3.425781 94.117188 4.445312 C 95.480469 5.089844 96.785156 5.925781 98.207031 6.332031 C 110.121094 9.742188 122.058594 13.0625 133.980469 16.425781 C 135.128906 16.75 136.246094 17.171875 137.152344 17.472656 C 134.828125 36.933594 127.316406 55.042969 125.832031 74.988281 C 123 74.210938 120.132812 73.414062 117.257812 72.625 C 115.042969 72.019531 112.855469 71.289062 110.605469 70.847656 C 105.570312 69.867188 100.519531 68.90625 95.441406 68.191406 C 93.542969 67.925781 91.460938 68.042969 89.601562 68.53125 C 83.699219 70.082031 78.058594 71.199219 72.632812 66.820312 C 71.105469 65.589844 68.476562 65.652344 66.320312 65.335938 C 64.4375 65.058594 62.445312 65.320312 60.609375 64.890625 C 57.789062 64.230469 55.871094 62.964844 56.007812 59.277344 C 56.195312 54.066406 51.789062 49.96875 46.617188 49.582031 C 45.046875 49.460938 43.496094 49.058594 42.445312 48.871094 C 42.816406 44.8125 43.105469 41.140625 43.511719 37.480469 C 43.597656 36.730469 44.0625 36 44.453125 35.316406 C 45.949219 32.675781 47.851562 30.109375 45.21875 27.046875 C 44.910156 26.691406 45.046875 25.917969 45.058594 25.339844 C 45.144531 20.105469 45.257812 14.878906 45.347656 9.652344 C 45.375 8.09375 45.355469 6.53125 45.804688 4.664062 C 51.773438 9.398438 60.25 8.464844 65.988281 15.027344 C 63.507812 16.628906 61.195312 18.023438 59 19.597656 C 58.339844 20.070312 57.441406 21.421875 57.628906 21.707031 C 59.265625 24.121094 60.8125 26.765625 63.03125 28.550781 C 64.523438 29.75 67.941406 27.402344 68.996094 25.007812 C 69.28125 24.355469 69.636719 23.679688 69.683594 22.992188 C 69.953125 19.242188 70.382812 15.597656 73.296875 12.742188 C 73.765625 12.28125 73.828125 11.222656 73.785156 10.457031 C 73.59375 6.933594 73.292969 3.414062 73.039062 0.00390625 C 76.824219 0.519531 79.972656 0.949219 83.125 1.378906 " fill-opacity="1" fill-rule="nonzero"/><path fill="#b1642b" d="M 293.621094 97.199219 C 295.335938 79.285156 297.015625 61.726562 298.753906 43.589844 C 302.96875 43.867188 307.058594 44.171875 311.148438 44.394531 C 324.835938 45.132812 338.519531 45.949219 352.21875 46.515625 C 360.539062 46.851562 368.867188 46.863281 377.191406 46.832031 C 379.898438 46.820312 380.820312 47.996094 380.789062 50.4375 C 380.769531 51.859375 380.917969 53.292969 380.789062 54.703125 C 380.3125 59.851562 380.933594 64.714844 383.15625 69.511719 C 385.226562 73.988281 385.679688 78.847656 384.894531 83.832031 C 384.542969 86.085938 384.894531 88.464844 385.011719 90.785156 C 385.066406 91.789062 385.355469 92.78125 385.507812 93.785156 C 386.417969 99.855469 385.148438 101.511719 379.167969 101.351562 C 358.859375 100.804688 338.546875 100.257812 318.25 99.488281 C 310.949219 99.214844 303.671875 98.332031 296.386719 97.703125 C 295.59375 97.632812 294.808594 97.417969 293.621094 97.199219 " fill-opacity="1" fill-rule="nonzero"/><path fill="#b1642b" d="M 410.476562 217.121094 C 408.542969 214.691406 406.589844 212.265625 404.683594 209.804688 C 404.351562 209.382812 403.875 208.628906 404.03125 208.351562 C 404.320312 207.839844 405.011719 207.265625 405.570312 207.234375 C 411.355469 206.878906 417.152344 206.617188 422.945312 206.355469 C 429.738281 206.054688 436.535156 205.609375 443.335938 205.539062 C 449.191406 205.472656 455.046875 205.851562 460.855469 206.027344 C 461.328125 209.644531 461.269531 212.675781 462.1875 215.378906 C 463.242188 218.464844 464.886719 221.449219 466.789062 224.109375 C 469.011719 227.210938 471.71875 229.992188 474.378906 232.75 C 475.382812 233.785156 476.773438 234.585938 478.136719 235.097656 C 480.417969 235.957031 481.03125 237.195312 480.257812 239.546875 C 477.800781 246.980469 478.753906 249.660156 485.867188 252.839844 C 490.5625 254.933594 493.175781 257.847656 493.140625 263.125 C 493.113281 266.46875 494.28125 269.335938 498.082031 270.210938 C 497.664062 273.242188 497.90625 276 494.316406 277.574219 C 492.933594 278.175781 492.371094 281.316406 492.011719 283.398438 C 491.363281 287.1875 491.519531 287.234375 487.050781 286.566406 C 487.21875 285.3125 487.378906 284.046875 487.5625 282.785156 C 488.0625 279.398438 487.378906 278.492188 483.960938 278.582031 C 472.28125 278.882812 460.601562 279.25 448.929688 279.613281 C 439.996094 279.894531 431.066406 280.144531 422.144531 280.53125 C 420.050781 280.621094 419.199219 279.957031 419.167969 277.863281 C 419.039062 268.535156 418.742188 259.210938 418.710938 249.890625 C 418.699219 245.53125 419.097656 241.167969 419.421875 236.820312 C 419.628906 234.042969 418.6875 231.988281 416.558594 230.164062 C 414.679688 228.554688 412.359375 227.035156 414.367188 223.667969 C 415.601562 221.609375 412.710938 217.347656 410.410156 217.050781 C 410.417969 217.0625 410.476562 217.121094 410.476562 217.121094 " fill-opacity="1" fill-rule="nonzero"/><path fill="#b1642b" d="M 418.042969 333.066406 C 417.605469 332.992188 417.265625 333.015625 417.03125 332.875 C 410.050781 328.71875 402.785156 329.015625 395.664062 332.074219 C 390.242188 334.410156 384.988281 333.761719 379.578125 332.632812 C 376.699219 332.027344 373.757812 331.660156 370.941406 330.855469 C 368.875 330.265625 366.996094 329.054688 364.964844 328.28125 C 361.859375 327.09375 358.691406 326.074219 355.5625 324.929688 C 353.296875 324.109375 351.039062 323.273438 348.828125 322.3125 C 345.574219 320.898438 342.417969 319.242188 339.121094 317.929688 C 337.078125 317.117188 336.402344 315.960938 336.589844 313.789062 C 337.351562 304.976562 337.964844 296.15625 338.625 287.332031 C 338.691406 286.425781 338.671875 285.5 338.757812 284.59375 C 339.042969 281.691406 337.851562 280.460938 334.839844 280.1875 C 322.386719 279.078125 309.957031 277.75 297.519531 276.480469 C 296.539062 276.378906 295.566406 276.109375 294.476562 275.90625 C 294.53125 273.730469 294.378906 271.84375 297.464844 272.277344 C 326 276.285156 354.71875 274.292969 383.359375 274.832031 C 393.117188 275.019531 402.882812 275.195312 412.640625 275.367188 C 414.082031 275.394531 415.382812 275.234375 415.65625 277.371094 C 416.691406 285.425781 418.496094 293.429688 418.902344 301.511719 C 419.398438 311.328125 418.785156 321.207031 418.609375 331.050781 C 418.597656 331.71875 418.25 332.378906 418.042969 333.066406 " fill-opacity="1" fill-rule="nonzero"/><path fill="#b1642b" d="M 462.007812 82.0625 C 462.191406 87.445312 464.125 88.675781 471.007812 87.621094 C 471.789062 94.5 476.867188 96.3125 482.722656 97.316406 C 487.621094 98.160156 492.464844 99.367188 497.367188 100.199219 C 499.785156 100.613281 501.175781 101.980469 502.027344 104.046875 C 502.882812 106.113281 503.691406 108.207031 504.289062 110.347656 C 504.476562 111.023438 504.035156 111.984375 503.636719 112.675781 C 502.886719 113.988281 501.671875 115.105469 501.195312 116.484375 C 500.875 117.410156 501.167969 118.945312 501.800781 119.6875 C 502.324219 120.300781 503.917969 120.574219 504.734375 120.238281 C 506.484375 119.53125 508.027344 118.328125 510 117.128906 C 509.808594 117.996094 509.800781 118.742188 509.492188 119.339844 C 507.207031 123.738281 507.023438 128.445312 507.105469 133.277344 C 507.167969 137.21875 506.605469 141.171875 506.632812 145.117188 C 506.644531 147.042969 506.863281 149.292969 507.871094 150.8125 C 510.023438 154.03125 509.140625 157.269531 508.710938 160.53125 C 508.644531 161.046875 507.394531 161.726562 506.648438 161.785156 C 496.117188 162.648438 485.59375 163.710938 475.046875 163.984375 C 472.792969 164.042969 470.007812 161.570312 468.265625 159.5625 C 465.277344 156.109375 463.027344 152.136719 464.148438 147.097656 C 464.980469 143.339844 463.582031 140.367188 460.328125 138.226562 C 457.527344 136.378906 455.316406 134.15625 453.667969 131 C 452.71875 129.183594 449.710938 127.804688 447.445312 127.460938 C 443.734375 126.902344 442.519531 124.851562 442.058594 121.640625 C 441.433594 117.339844 440.484375 113.070312 440.179688 108.753906 C 440.039062 106.828125 440.636719 104.445312 441.761719 102.914062 C 444.296875 99.472656 446.167969 96.113281 446.265625 91.601562 C 446.304688 89.953125 448.578125 87.886719 450.335938 86.84375 C 453.34375 85.0625 456.738281 83.914062 459.992188 82.546875 C 460.613281 82.28125 461.3125 82.222656 462.007812 82.0625 " fill-opacity="1" fill-rule="nonzero"/><path fill="#b1642b" d="M 459.878906 149.410156 C 462.144531 155.660156 464.101562 161.675781 469.722656 165.535156 C 471.046875 166.449219 472.191406 167.648438 473.375 168.761719 C 477.6875 172.785156 477.328125 178.574219 472.582031 182.039062 C 471.027344 183.179688 469.125 184.078125 468.042969 185.570312 C 466.980469 187.027344 466.035156 189.242188 466.355469 190.863281 C 466.773438 192.953125 466.25 194.324219 465.289062 195.921875 C 463.945312 198.152344 462.75 200.476562 461.292969 203.113281 C 450.167969 200.601562 438.527344 202.617188 426.902344 202.800781 C 419.765625 202.914062 412.640625 203.296875 405.511719 203.722656 C 403.488281 203.84375 402.738281 203.128906 402.628906 201.261719 C 402.007812 190.175781 396.3125 180.878906 392.050781 171.0625 C 389.5 165.1875 390.414062 159.125 391.980469 153.183594 C 392.136719 152.617188 393.742188 152.160156 394.691406 152.117188 C 410.636719 151.425781 426.589844 150.8125 442.53125 150.167969 C 448.402344 149.933594 454.261719 149.652344 459.878906 149.410156 " fill-opacity="1" fill-rule="nonzero"/><path fill="#b1642b" d="M 477.820312 167.660156 C 486.660156 166.980469 495.269531 166.3125 503.878906 165.652344 C 510.90625 165.117188 510.894531 165.128906 514.078125 171.503906 C 514.96875 173.296875 515.453125 174.945312 514.347656 176.953125 C 513.761719 178.007812 513.792969 179.527344 513.878906 180.816406 C 514.535156 190.546875 515.328125 200.269531 515.945312 210.003906 C 516.136719 213.015625 515.886719 216.058594 515.925781 219.085938 C 515.957031 221.5 515.460938 224.21875 516.378906 226.273438 C 518.042969 229.996094 517.414062 233.316406 516.390625 236.90625 C 515.152344 241.269531 514.207031 245.71875 513.179688 250.148438 C 512.558594 252.832031 511.757812 255.199219 509.613281 257.316406 C 507.871094 259.035156 507.207031 261.835938 505.890625 264.511719 C 505.15625 264.382812 504.066406 263.953125 503.03125 264.070312 C 501.820312 264.210938 500.636719 264.773438 499.488281 265.261719 C 498.925781 265.496094 498.464844 265.984375 497.960938 266.355469 C 497.5625 265.707031 496.949219 265.101562 496.804688 264.398438 C 496.398438 262.410156 496.101562 260.394531 495.894531 258.371094 C 495.59375 255.476562 494.066406 253.484375 491.589844 252.136719 C 489.445312 250.972656 487.261719 249.878906 485.140625 248.675781 C 482.707031 247.300781 481.71875 245.34375 482.789062 242.550781 C 483.296875 241.230469 483.789062 239.859375 483.960938 238.46875 C 484.28125 235.828125 483.578125 233.640625 480.699219 232.703125 C 478.292969 231.917969 476.730469 230.304688 475.292969 228.136719 C 473.640625 225.640625 471.160156 223.695312 469.066406 221.492188 C 464.019531 216.1875 463.101562 205.050781 467.273438 199.054688 C 469.234375 196.238281 471.128906 193.511719 469.578125 189.808594 C 469.398438 189.382812 469.929688 188.476562 470.371094 188.019531 C 471.0625 187.300781 471.945312 186.742188 472.777344 186.167969 C 480.144531 181.089844 481.597656 175.957031 477.820312 167.660156 " fill-opacity="1" fill-rule="nonzero"/><path fill="#b1642b" d="M 419.9375 284.019531 C 441.5 283.289062 462.566406 282.578125 483.691406 281.863281 C 483.691406 284.734375 482.839844 287.652344 483.933594 289.121094 C 484.96875 290.5 488.050781 290.347656 491.066406 291.078125 C 487.550781 298.636719 484.738281 306.542969 480.425781 313.519531 C 474.429688 323.191406 469.050781 332.734375 470.414062 345.003906 C 469.234375 345.085938 468.0625 345.234375 466.894531 345.234375 C 459.671875 345.230469 452.453125 345.1875 445.230469 345.171875 C 439.71875 345.160156 434.195312 345.171875 428.484375 345.171875 C 428.484375 342.25 429.277344 339.332031 428.246094 337.371094 C 427.308594 335.589844 424.382812 334.847656 421.808594 333.339844 C 423.890625 317.511719 423.207031 301.046875 419.9375 284.019531 " fill-opacity="1" fill-rule="nonzero"/><path fill="#b1642b" d="M 570 371.457031 C 563.96875 372.605469 558.160156 373.976562 552.273438 374.746094 C 546.335938 375.519531 540.324219 375.679688 534.351562 376.128906 C 529.027344 376.53125 527.265625 379.617188 529.566406 384.476562 C 530.382812 386.195312 531.179688 387.921875 531.957031 389.585938 C 528.429688 392.007812 528.097656 391.847656 526.78125 388.550781 C 526.316406 387.386719 525.144531 386.511719 524.292969 385.5 C 523.335938 386.417969 522.304688 387.285156 521.441406 388.28125 C 520.878906 388.929688 520.550781 389.78125 519.355469 390.515625 C 518.96875 386.671875 518.625 382.828125 518.199219 378.992188 C 516.316406 362.136719 517.136719 345.292969 518.285156 328.445312 C 518.78125 321.25 519.386719 314.054688 519.816406 306.851562 C 519.929688 304.890625 520.625 304.015625 522.628906 303.761719 C 532.300781 302.554688 541.972656 301.28125 551.621094 299.917969 C 553.714844 299.617188 554.21875 300.660156 554.640625 302.3125 C 557.46875 313.4375 560.296875 324.566406 563.257812 335.65625 C 563.789062 337.65625 564.679688 339.664062 565.851562 341.367188 C 567.671875 344.015625 568.101562 346.613281 567.957031 349.894531 C 567.71875 355.300781 568.554688 360.757812 569.027344 366.183594 C 569.167969 367.773438 569.601562 369.339844 570 371.457031 " fill-opacity="1" fill-rule="nonzero"/><path fill="#b1642b" d="M 502.3125 403.691406 C 500.710938 407.273438 496.960938 409.175781 499.257812 412.8125 C 500.816406 415.269531 503.234375 417.167969 504.996094 419.847656 C 503.164062 418.730469 501.285156 417.691406 499.53125 416.476562 C 498.285156 415.613281 497.34375 414.222656 496.011719 413.59375 C 494.492188 412.875 492.660156 412.398438 491.035156 412.546875 C 490.566406 412.589844 490.34375 415.183594 489.988281 416.679688 C 484.5625 416.679688 478.621094 416.679688 472.476562 416.679688 C 472.066406 409.636719 466.507812 408.859375 461.964844 407.304688 C 460.640625 406.847656 458.175781 408.023438 457 409.203125 C 455.222656 410.984375 453.957031 411.925781 451.359375 410.640625 C 448.132812 409.042969 444.6875 407.742188 441.203125 406.84375 C 439.289062 406.347656 437.082031 406.816406 435.03125 407.074219 C 434.101562 407.191406 433.246094 407.839844 431.695312 408.558594 C 431.695312 403.59375 431.207031 399.128906 431.824219 394.820312 C 432.476562 390.25 434.660156 385.898438 435.21875 381.332031 C 435.488281 379.148438 434.066406 376.226562 432.488281 374.460938 C 429.847656 371.523438 429.933594 367.847656 428.984375 364.546875 C 427.769531 360.328125 427.8125 355.773438 427.011719 351.414062 C 426.59375 349.125 427.550781 348.070312 429.4375 348.0625 C 436.746094 348.042969 444.054688 348.214844 451.359375 348.34375 C 456.742188 348.441406 462.121094 348.6875 467.5 348.660156 C 469.757812 348.648438 470.65625 349.148438 470.8125 351.648438 C 470.960938 353.988281 471.78125 356.4375 472.898438 358.523438 C 473.902344 360.386719 473.820312 361.492188 472.4375 363.054688 C 467.605469 368.519531 465.425781 375.0625 465.0625 382.285156 C 464.929688 384.878906 466.019531 386.023438 468.636719 385.941406 C 475.851562 385.710938 483.066406 385.613281 490.277344 385.328125 C 492.128906 385.261719 493.355469 385.667969 494.148438 387.445312 C 494.761719 388.824219 495.640625 390.097656 496.441406 391.394531 C 497.722656 393.460938 499.195312 395.394531 495.394531 396.644531 C 494.746094 396.859375 494.210938 399.195312 494.546875 400.261719 C 495.183594 402.296875 496.449219 404.117188 499.195312 403.714844 C 500.214844 403.5625 501.269531 403.691406 502.3125 403.691406 " fill-opacity="1" fill-rule="nonzero"/><path fill="#b1642b" d="M 683.445312 74.757812 C 684.324219 76.8125 685.195312 78.429688 685.710938 80.144531 C 686.574219 83.027344 687.128906 86 687.964844 88.890625 C 688.980469 92.367188 689.453125 96.273438 691.390625 99.167969 C 696.59375 106.921875 698.351562 115.109375 697.316406 124.324219 C 696.902344 128.023438 697.734375 131.988281 698.628906 135.675781 C 699.835938 140.652344 700.464844 145.375 699.554688 150.558594 C 695.222656 149.765625 690.636719 149.558594 686.605469 147.957031 C 684.144531 146.980469 682.335938 144.011719 680.578125 141.675781 C 678.679688 139.132812 676.839844 138.703125 673.648438 139.53125 C 656.855469 143.878906 639.964844 147.855469 623.105469 151.957031 C 622.71875 152.046875 622.300781 152.015625 621.773438 152.050781 C 620.550781 149.445312 620.46875 147.128906 622.71875 144.917969 C 624.082031 143.578125 625.117188 141.902344 626.335938 140.40625 C 628.816406 137.367188 629.707031 134.179688 628.390625 130.222656 C 626.964844 125.933594 628.101562 124.855469 632.5625 124.039062 C 638.046875 123.035156 643.550781 121.914062 648.867188 120.277344 C 654.074219 118.683594 657.332031 113.933594 656.996094 109.242188 C 656.421875 101.28125 660.777344 95.628906 663.585938 89.164062 C 665.675781 84.347656 669.085938 81.121094 674.015625 79.25 C 677.21875 78.03125 680.230469 76.3125 683.445312 74.757812 " fill-opacity="1" fill-rule="nonzero"/><path fill="#b1642b" d="M 516.472656 304.621094 C 516.21875 308.449219 515.984375 311.757812 515.796875 315.074219 C 515.058594 327.753906 514.007812 340.421875 513.734375 353.105469 C 513.546875 361.703125 514.433594 370.328125 514.894531 378.933594 C 515.074219 382.371094 515.316406 385.816406 515.703125 389.238281 C 515.902344 391.046875 515.195312 391.867188 513.535156 392.222656 C 509.929688 393 506.328125 393.828125 502.285156 394.726562 C 500.453125 391.523438 498.269531 387.890625 496.273438 384.160156 C 495.363281 382.453125 494.40625 381.710938 492.269531 381.832031 C 485.683594 382.199219 479.070312 382.222656 472.46875 382.367188 C 471.277344 382.394531 470.082031 382.371094 468.566406 382.371094 C 468.992188 375.863281 470.71875 370.28125 474.746094 365.5625 C 478.050781 361.679688 478.089844 360.785156 475.625 356.507812 C 474.800781 355.078125 474.40625 353.28125 474.242188 351.605469 C 473.90625 348.191406 473.875 344.746094 473.691406 341.316406 C 473.226562 332.417969 477.316406 325.054688 481.664062 317.785156 C 483.21875 315.183594 484.847656 312.617188 486.585938 310.136719 C 487.160156 309.324219 488.121094 308.382812 489.011719 308.253906 C 497.941406 306.980469 506.890625 305.859375 516.472656 304.621094 " fill-opacity="1" fill-rule="nonzero"/><path fill="#b1642b" d="M 691.628906 247.585938 C 689.984375 249.410156 688.253906 251.167969 686.730469 253.082031 C 685.980469 254.027344 685.609375 255.265625 685.066406 256.378906 C 686.226562 256.777344 687.367188 257.242188 688.550781 257.542969 C 689.226562 257.714844 689.972656 257.589844 690.679688 257.644531 C 694.265625 257.902344 694.929688 258.652344 694.734375 262.160156 C 694.570312 265 693.257812 266.132812 690.113281 266.070312 C 689.199219 266.050781 688.050781 265.507812 687.4375 265.894531 C 686.460938 266.5 685.613281 267.582031 685.121094 268.648438 C 684.460938 270.085938 684.1875 271.703125 683.742188 273.242188 C 683.40625 274.402344 682.453125 275.976562 682.882812 276.613281 C 683.421875 277.414062 685.085938 277.675781 686.289062 277.75 C 687.832031 277.84375 689.398438 277.519531 690.949219 277.371094 C 691.078125 277.742188 691.210938 278.105469 691.339844 278.476562 C 689.109375 279.625 686.988281 281.214844 684.617188 281.820312 C 679.382812 283.15625 676.070312 286.140625 674.519531 291.304688 C 674.03125 292.9375 673.132812 294.464844 672.308594 295.980469 C 670.449219 299.386719 667.660156 300.191406 664.289062 298.449219 C 659.054688 295.742188 653.886719 292.894531 648.507812 290.5 C 646.5 289.601562 643.78125 289.070312 641.765625 289.667969 C 636.503906 291.222656 632.085938 289.714844 627.449219 287.542969 C 624.984375 286.394531 622.035156 285.800781 619.308594 285.785156 C 610.9375 285.753906 603.09375 288.355469 595.484375 291.582031 C 589.898438 293.949219 584.121094 292.679688 578.441406 293.21875 C 577.949219 290.371094 578.632812 288.535156 580.980469 287.300781 C 583.851562 285.785156 586.570312 283.984375 589.453125 282.492188 C 592.359375 280.984375 594.769531 279.15625 596.914062 276.507812 C 598.773438 274.203125 601.808594 272.304688 604.671875 271.503906 C 608.070312 270.558594 609.828125 268.703125 610.4375 265.660156 C 611.054688 262.59375 612.851562 261.773438 615.664062 261.488281 C 638.25 259.207031 660.285156 253.902344 682.410156 249.117188 C 685.234375 248.503906 687.964844 247.429688 690.738281 246.578125 C 691.035156 246.914062 691.335938 247.25 691.628906 247.585938 " fill-opacity="1" fill-rule="nonzero"/><path fill="#b1642b" d="M 616.019531 190.660156 C 616.132812 189.773438 616.289062 188.894531 616.359375 188.003906 C 616.5625 185.238281 617.207031 182.410156 616.824219 179.726562 C 615.660156 171.546875 614.050781 163.429688 612.742188 155.269531 C 612.621094 154.539062 613.21875 153.441406 613.832031 152.902344 C 614.785156 152.050781 616.03125 151.53125 617.105469 150.898438 C 617.394531 151.167969 617.621094 151.273438 617.664062 151.429688 C 618.984375 156.265625 619.027344 156.441406 623.855469 155.285156 C 640.65625 151.246094 657.425781 147.121094 674.175781 142.90625 C 675.914062 142.464844 676.914062 142.6875 678.097656 144.007812 C 683.570312 150.089844 683.6875 150.070312 682.078125 158.441406 C 681.605469 160.910156 681.691406 162.96875 683.359375 164.976562 C 684.316406 166.132812 685.023438 167.53125 685.660156 168.90625 C 688.195312 174.339844 687.160156 175.789062 682.601562 179.570312 C 677.457031 183.84375 671.433594 184.902344 665.410156 186.339844 C 658.695312 187.933594 651.917969 189.25 645.203125 190.835938 C 642.390625 191.503906 639.648438 192.296875 638.902344 195.925781 C 638.589844 197.460938 637.113281 198.753906 635.917969 199.90625 C 632.320312 193.027344 631.992188 192.886719 625.574219 194.96875 C 620.996094 196.457031 621.015625 196.441406 618.027344 192.695312 C 617.414062 191.925781 616.582031 191.34375 615.855469 190.671875 C 615.859375 190.671875 615.929688 190.574219 615.929688 190.574219 L 616.019531 190.660156 " fill-opacity="1" fill-rule="nonzero"/><path fill="#b1642b" d="M 571.222656 124.554688 C 573.929688 129.671875 576.671875 134.386719 578.882812 139.34375 C 579.488281 140.710938 578.984375 143.035156 578.195312 144.484375 C 574.851562 150.613281 572.046875 156.863281 571.761719 163.960938 C 571.679688 165.960938 570.640625 166.945312 568.8125 167.167969 C 564.78125 167.65625 560.746094 168.070312 556.710938 168.503906 C 551.070312 169.109375 545.421875 169.765625 539.769531 170.289062 C 536.078125 170.632812 532.359375 170.785156 528.671875 171.019531 C 529.660156 165.535156 530.378906 160.667969 531.4375 155.875 C 532.480469 151.09375 531.632812 146.746094 528.914062 142.820312 C 524.9375 137.09375 523.640625 131.066406 525.980469 124.355469 C 526.476562 122.941406 526.582031 121.378906 526.792969 119.871094 C 527.339844 116 528.964844 113.949219 532.765625 113.15625 C 535.722656 112.539062 536.742188 110.933594 536.078125 108.15625 C 535.601562 106.175781 536.25 104.804688 537.511719 103.226562 C 538.761719 101.664062 539.402344 99.566406 540.105469 97.628906 C 540.496094 96.546875 540.480469 95.320312 540.714844 93.699219 C 544.214844 95.023438 547.300781 96.214844 550.410156 97.355469 C 552.839844 98.25 555.25 99.273438 557.757812 99.867188 C 559.492188 100.277344 560.203125 100.777344 560.460938 102.726562 C 560.71875 104.695312 562.097656 106.496094 562.777344 108.4375 C 563.265625 109.847656 563.976562 111.546875 563.601562 112.824219 C 562.25 117.382812 560.546875 121.851562 558.820312 126.289062 C 557.941406 128.554688 558.847656 130.277344 560.515625 131.265625 C 561.523438 131.859375 563.640625 131.859375 564.507812 131.171875 C 566.933594 129.25 568.96875 126.84375 571.222656 124.554688 " fill-opacity="1" fill-rule="nonzero"/><path fill="#b1642b" d="M 616.015625 190.449219 C 613.640625 191.261719 612.773438 193.273438 612.683594 195.433594 C 612.519531 199.121094 610.871094 201.296875 607.453125 202.71875 C 604.136719 204.101562 602.082031 206.769531 601.089844 210.414062 C 600.5625 212.324219 598.953125 213.910156 597.949219 215.714844 C 597.171875 217.117188 596.636719 218.652344 595.890625 220.066406 C 594.910156 221.941406 593.832031 223.761719 592.65625 225.847656 C 589.445312 222.066406 585.792969 222.1875 581.539062 223.015625 C 576.566406 223.980469 571.535156 223.976562 567.148438 220.191406 C 565.539062 218.800781 562.878906 218.625 560.863281 217.949219 C 559.136719 207.03125 557.289062 196.128906 555.734375 185.183594 C 555.128906 180.933594 555.171875 176.585938 554.949219 172.820312 C 561.660156 171.546875 567.46875 170.265625 573.34375 169.4375 C 575.121094 169.191406 577.097656 170.097656 578.9375 170.640625 C 587.394531 173.144531 596.65625 169.929688 601.941406 162.878906 C 603.851562 160.324219 606.277344 158.148438 608.984375 155.257812 C 609.628906 157.671875 609.835938 159.1875 610.421875 160.539062 C 613.035156 166.621094 612.304688 173.339844 614.148438 179.59375 C 614.757812 181.691406 614.0625 184.207031 613.820312 186.515625 C 613.617188 188.460938 613.402344 190.277344 616.019531 190.660156 L 615.929688 190.574219 L 616.015625 190.449219 " fill-opacity="1" fill-rule="nonzero"/><path fill="#b1642b" d="M 560.140625 221.570312 C 562.003906 222.089844 564.121094 222.074219 565.324219 223.121094 C 570.472656 227.585938 576.460938 227.050781 582.402344 226.292969 C 587.59375 225.632812 587.875 225.710938 590.402344 230.230469 C 593.101562 235.046875 596.175781 239.660156 599.183594 244.5 C 598.382812 245.332031 597.164062 246.519531 596.03125 247.789062 C 593.558594 250.566406 591.039062 253.3125 588.707031 256.207031 C 585.953125 259.621094 583.320312 262.632812 578.378906 263.296875 C 558.964844 265.898438 539.582031 268.792969 520.226562 271.820312 C 514.867188 272.65625 509.636719 274.347656 504.335938 275.597656 C 503.390625 275.824219 502.386719 275.804688 500.804688 275.949219 C 501.3125 272.9375 501.75 270.328125 502.160156 267.890625 C 502.796875 267.734375 503 267.617188 503.171875 267.648438 C 508.957031 268.835938 508.867188 268.816406 510.460938 262.921875 C 510.855469 261.445312 511.972656 260.152344 512.855469 258.835938 C 513.472656 257.917969 514.722656 257.171875 514.859375 256.234375 C 515.730469 250.328125 520.621094 250.578125 524.46875 250.457031 C 530.582031 250.269531 536.121094 249.347656 540.628906 244.839844 C 541.070312 244.398438 542.214844 244.296875 542.878906 244.511719 C 545.910156 245.472656 547.570312 243.835938 548.6875 241.460938 C 549.992188 238.714844 550.972656 235.816406 552.253906 233.058594 C 552.691406 232.101562 553.496094 230.753906 554.296875 230.632812 C 558.523438 229.972656 559.082031 226.765625 559.710938 223.515625 C 559.800781 223.03125 559.921875 222.558594 560.140625 221.570312 " fill-opacity="1" fill-rule="nonzero"/><path fill="#b1642b" d="M 489.015625 304.59375 C 490.0625 301.894531 490.902344 299.730469 491.738281 297.5625 C 493.546875 292.867188 495.703125 288.253906 495.496094 283.050781 C 495.386719 280.375 496.960938 279.523438 499.253906 279.339844 C 501.980469 279.125 504.769531 279.195312 507.4375 278.648438 C 514.851562 277.125 522.148438 274.945312 529.617188 273.746094 C 545.4375 271.21875 561.332031 269.132812 577.203125 266.894531 C 586.65625 265.5625 596.113281 264.296875 605.566406 263.007812 C 606.140625 262.925781 606.71875 262.933594 607.554688 262.882812 C 607.046875 265.460938 606.519531 267.125 603.71875 268.179688 C 599.542969 269.753906 595.242188 271.585938 592.855469 276.019531 C 592.210938 277.210938 590.566406 277.933594 589.273438 278.691406 C 585.769531 280.734375 582.207031 282.679688 578.667969 284.660156 C 576.265625 286.007812 574.839844 287.960938 574.945312 290.808594 C 575.011719 292.742188 574.304688 293.605469 572.191406 293.871094 C 552.351562 296.371094 532.53125 299 512.703125 301.597656 C 505.65625 302.523438 498.613281 303.457031 491.570312 304.375 C 490.890625 304.460938 490.199219 304.492188 489.015625 304.59375 " fill-opacity="1" fill-rule="nonzero"/><path fill="#b1642b" d="M 690.09375 243.320312 C 656.9375 252.523438 623.292969 257.582031 589.445312 261.546875 C 589.214844 261.289062 588.988281 261.03125 588.757812 260.769531 C 592.714844 256.566406 596.691406 252.378906 600.617188 248.148438 C 601.824219 246.847656 602.878906 246.71875 604.59375 247.511719 C 606.132812 248.230469 608.214844 248.621094 609.828125 248.226562 C 614.34375 247.109375 618.773438 245.59375 623.1875 244.082031 C 629.007812 242.085938 631.65625 237.464844 632.90625 231.804688 C 633.28125 230.121094 633.40625 228.375 633.863281 226.71875 C 634.539062 224.226562 634.058594 221.050781 637.609375 220.105469 C 638.03125 219.992188 638.246094 219.117188 638.570312 218.601562 C 641.945312 213.1875 645.261719 207.734375 648.78125 202.421875 C 649.289062 201.65625 650.78125 201.410156 651.867188 201.207031 C 653.8125 200.84375 655.820312 200.816406 657.75 200.417969 C 659.636719 200.027344 663.289062 202.910156 663.414062 205.148438 C 663.667969 209.84375 665.8125 213.191406 670.21875 215 C 671.257812 215.425781 672.253906 215.929688 673.28125 216.363281 C 680.332031 219.359375 679.273438 218.488281 679.628906 227.195312 C 679.699219 228.785156 679.925781 230.363281 679.957031 231.953125 C 679.96875 232.660156 679.78125 233.410156 679.515625 234.078125 C 679.042969 235.253906 677.703125 237.003906 678.039062 237.414062 C 679.042969 238.625 680.644531 239.394531 682.125 240.105469 C 682.640625 240.355469 683.515625 240.003906 684.175781 239.777344 C 688.523438 238.28125 688.523438 238.269531 690.09375 243.320312 " fill-opacity="1" fill-rule="nonzero"/><path fill="#b1642b" d="M 550.695312 172.480469 C 551.886719 179.921875 553.070312 186.882812 554.070312 193.871094 C 554.425781 196.355469 554.234375 198.914062 554.449219 201.433594 C 554.621094 203.421875 554.664062 205.539062 555.402344 207.335938 C 557.847656 213.332031 556.914062 219.296875 555.648438 225.28125 C 555.511719 225.914062 554.757812 226.722656 554.140625 226.882812 C 550.984375 227.726562 549.597656 230.105469 548.546875 232.847656 C 548 234.269531 547.441406 235.6875 546.90625 237.113281 C 546.007812 239.507812 545.421875 242.054688 541.691406 240.828125 C 540.738281 240.519531 539.015625 241.613281 538.03125 242.492188 C 535.132812 245.089844 531.992188 246.738281 527.980469 246.828125 C 524.46875 246.90625 520.964844 247.429688 516.824219 247.816406 C 517.335938 245.546875 517.734375 243.324219 518.34375 241.160156 C 519.003906 238.816406 520.226562 236.578125 520.527344 234.207031 C 520.835938 231.8125 520.378906 229.304688 520.105469 226.863281 C 519.933594 225.269531 519.003906 223.621094 519.25 222.132812 C 520.722656 213.449219 518.640625 204.949219 518.1875 196.371094 C 517.910156 191.09375 517.5625 185.824219 517.292969 180.546875 C 517.25 179.671875 517.441406 178.777344 517.578125 177.414062 C 521.195312 178.476562 523.949219 177.546875 525.894531 174.515625 C 526.132812 174.140625 526.976562 174.058594 527.554688 174.015625 C 534.414062 173.484375 541.273438 172.976562 548.140625 172.492188 C 549.226562 172.417969 550.328125 172.480469 550.695312 172.480469 " fill-opacity="1" fill-rule="nonzero"/><path fill="#b1642b" d="M 662.800781 301.355469 C 658.421875 304.066406 657.617188 307.824219 657.167969 311.550781 C 656.570312 316.386719 654.101562 319.933594 650.738281 323.21875 C 649.269531 324.640625 648 326.644531 647.511719 328.597656 C 646.765625 331.597656 645.046875 333.523438 642.765625 335.355469 C 639.738281 337.785156 636.921875 340.480469 633.710938 343.324219 C 630.441406 342.273438 628.769531 338.847656 627.371094 335.445312 C 624.902344 329.429688 620.722656 324.867188 616.003906 320.617188 C 609.058594 314.363281 602.203125 308.011719 595.3125 301.707031 C 591.855469 298.542969 592.285156 296.472656 596.636719 294.777344 C 603.558594 292.082031 610.480469 289.589844 618.027344 289.164062 C 621.082031 288.992188 623.863281 289.125 626.503906 290.75 C 631.328125 293.71875 636.417969 294.695312 641.972656 292.988281 C 643.238281 292.601562 644.941406 292.65625 646.125 293.203125 C 651.542969 295.683594 656.851562 298.414062 662.800781 301.355469 " fill-opacity="1" fill-rule="nonzero"/><g clip-path="url(#129d61e52d)"><path fill="#b1642b" d="M 730.871094 95.46875 C 729.722656 94.09375 728.101562 92.898438 727.511719 91.320312 C 724.144531 82.28125 721.007812 73.164062 717.84375 64.050781 C 717.570312 63.253906 717.324219 62.070312 717.710938 61.492188 C 721.472656 55.921875 721.4375 49.375 722.707031 43.148438 C 724.097656 36.320312 725.550781 29.5 727.242188 22.734375 C 728.21875 18.828125 729.523438 18.0625 733.578125 17.933594 C 735.40625 17.875 737.257812 18.105469 739.058594 17.863281 C 742.363281 17.421875 744.011719 19.074219 744.769531 21.96875 C 745.726562 25.601562 746.898438 29.210938 747.410156 32.90625 C 748.070312 37.625 750.625 40.640625 754.613281 42.777344 C 756.484375 43.78125 758.363281 44.78125 760.214844 45.835938 C 764.710938 48.402344 765.050781 52.335938 760.800781 55.148438 C 757.519531 57.316406 754.675781 59.703125 752.8125 63.265625 C 752.296875 64.253906 750.832031 65.242188 749.734375 65.320312 C 747.660156 65.476562 746.65625 66.398438 745.933594 68.1875 C 744.386719 72.015625 741.949219 75.164062 738.644531 77.699219 C 734.410156 80.941406 732.558594 85.417969 732.375 90.671875 C 732.332031 92.054688 732.160156 93.441406 732.046875 94.824219 C 731.65625 95.039062 731.261719 95.253906 730.871094 95.46875 " fill-opacity="1" fill-rule="nonzero"/></g><path fill="#b1642b" d="M 615.992188 195.640625 C 620.929688 201.871094 625.84375 197.375 630.855469 196.613281 C 631.328125 198.464844 631.613281 200.246094 632.242188 201.894531 C 633.175781 204.375 634.832031 204.871094 636.621094 203 C 638.671875 200.847656 640.296875 198.296875 642.152344 195.957031 C 642.550781 195.464844 643.097656 194.976562 643.679688 194.765625 C 644.621094 194.421875 645.691406 194.433594 646.628906 194.078125 C 650.300781 192.699219 652.578125 194.25 654.304688 197.839844 C 653.167969 197.839844 652.203125 197.9375 651.257812 197.824219 C 648.121094 197.449219 646.496094 199.1875 645.03125 201.675781 C 642.058594 206.734375 638.84375 211.652344 635.71875 216.621094 C 635.609375 216.792969 635.507812 217.058594 635.351562 217.101562 C 630.339844 218.457031 631.472656 223.019531 630.464844 226.460938 C 630.234375 227.238281 630.011719 228.039062 629.960938 228.84375 C 629.402344 236.863281 624.453125 240.828125 617.226562 242.734375 C 615.074219 243.304688 612.894531 243.820312 610.792969 244.546875 C 607.953125 245.535156 605.296875 244.96875 603.523438 242.851562 C 600.289062 238.992188 597.433594 234.8125 594.5625 230.664062 C 594.210938 230.164062 594.550781 228.945312 594.914062 228.242188 C 596.542969 225.109375 597.796875 221.570312 600.132812 219.058594 C 603.058594 215.910156 604.097656 212.128906 605.628906 208.441406 C 605.84375 207.921875 606.355469 207.386719 606.863281 207.144531 C 611.542969 204.925781 614.46875 201.230469 615.992188 195.640625 " fill-opacity="1" fill-rule="nonzero"/><path fill="#b1642b" d="M 497.152344 70.4375 C 496.125 71.085938 494.882812 71.546875 494.109375 72.421875 C 492.199219 74.597656 492.421875 77.171875 493.601562 79.570312 C 494.675781 81.75 496.632812 81.292969 498.664062 81.027344 C 499.625 80.898438 501.148438 81.71875 501.722656 82.570312 C 503.085938 84.59375 504.710938 85.496094 507.101562 85.136719 C 507.699219 85.046875 508.316406 85.023438 508.929688 85.050781 C 514.441406 85.289062 519.59375 85.101562 524.222656 80.972656 C 527.210938 78.308594 531.316406 77.101562 535.441406 80.023438 C 536.421875 80.726562 538.226562 80.71875 539.53125 80.453125 C 544.203125 79.5 546.972656 81.628906 547.289062 86.738281 C 543.75 86.738281 540.199219 86.683594 536.65625 86.753906 C 533.992188 86.808594 531.324219 86.988281 529.722656 89.699219 C 529.503906 90.074219 528.964844 90.304688 528.53125 90.511719 C 524.085938 92.628906 519.550781 94.589844 515.226562 96.925781 C 513.820312 97.6875 512.804688 99.339844 511.859375 100.75 C 510.351562 103.015625 509.054688 105.425781 507.277344 108.421875 C 506.636719 106.632812 506.214844 105.453125 505.796875 104.273438 C 504.308594 100.101562 502.023438 97.15625 497.085938 96.542969 C 491.554688 95.855469 486.101562 94.492188 480.640625 93.332031 C 476.253906 92.40625 474.445312 90.125 474.164062 85.722656 C 474.0625 84.058594 474.628906 83.171875 476.296875 83.121094 C 480.234375 82.980469 483.066406 81.148438 485.550781 78.070312 C 487.832031 75.257812 490.761719 72.957031 493.488281 70.527344 C 494.191406 69.90625 495.214844 69.640625 496.097656 69.210938 C 496.449219 69.621094 496.800781 70.027344 497.152344 70.4375 " fill-opacity="1" fill-rule="nonzero"/><path fill="#b1642b" d="M 687.234375 74.503906 C 694.65625 72.453125 701.753906 70.496094 709.347656 68.402344 C 708.847656 71.914062 708.71875 75.636719 707.738281 79.125 C 705.179688 88.28125 704.84375 97.472656 706.351562 106.792969 C 706.628906 108.496094 706.824219 110.207031 707.105469 112.292969 C 705.742188 112.671875 704.40625 113.371094 703.113281 113.289062 C 702.226562 113.234375 701.035156 112.285156 700.617188 111.421875 C 698.441406 106.988281 696.386719 102.484375 694.46875 97.933594 C 693.335938 95.25 691.9375 92.476562 691.710938 89.65625 C 691.355469 85.28125 690.246094 81.292969 688.238281 77.460938 C 687.75 76.527344 687.546875 75.445312 687.234375 74.503906 " fill-opacity="1" fill-rule="nonzero"/><path fill="#b1642b" d="M 710.605469 111.433594 C 709.714844 104.359375 707.871094 97.546875 709.402344 90.289062 C 711.042969 82.507812 711.804688 74.535156 712.980469 66.652344 C 713.0625 66.105469 713.378906 65.59375 713.890625 64.28125 C 714.6875 66.066406 715.273438 67.167969 715.683594 68.328125 C 718.402344 75.96875 721.117188 83.617188 723.753906 91.292969 C 724.859375 94.507812 726.496094 97.117188 729.894531 98.347656 C 731.414062 98.898438 731.746094 102.28125 730.253906 103.128906 C 724.210938 106.554688 718.597656 111.007812 711.28125 111.59375 C 711.183594 111.605469 711.085938 111.550781 710.605469 111.433594 " fill-opacity="1" fill-rule="nonzero"/><path fill="#b1642b" d="M 686.949219 151.84375 C 690.996094 152.589844 694.785156 153.21875 698.527344 154.039062 C 699.1875 154.183594 700.101562 155.113281 700.164062 155.75 C 701.386719 167.375 702.441406 179.011719 696.921875 190 C 696.660156 190.527344 696.273438 191 695.871094 191.605469 C 693.183594 190.601562 690.472656 189.8125 687.964844 188.597656 C 685.515625 187.417969 685.167969 181.832031 687.246094 180.011719 C 690.90625 176.796875 691.484375 174.664062 689.832031 170.078125 C 689.316406 168.652344 688.929688 167.023438 687.96875 165.945312 C 684.078125 161.585938 685.730469 156.941406 686.949219 151.84375 " fill-opacity="1" fill-rule="nonzero"/><path fill="#b1642b" d="M 722.417969 146.046875 C 716.75 150.363281 711.726562 155.976562 704.019531 157.300781 C 703.324219 148.660156 702.648438 140.25 701.929688 131.269531 C 707.886719 129.34375 714.496094 127.207031 721.460938 124.953125 C 722.78125 129.226562 723.972656 133.0625 725.070312 136.578125 C 720.277344 139.359375 715.707031 141.925781 711.238281 144.652344 C 710.082031 145.359375 708.914062 146.421875 708.34375 147.609375 C 707.855469 148.621094 708.214844 150.039062 708.199219 151.28125 C 709.421875 151.289062 710.804688 151.675781 711.828125 151.230469 C 714.703125 149.980469 717.421875 148.371094 720.21875 146.9375 C 720.921875 146.578125 721.683594 146.339844 722.417969 146.046875 " fill-opacity="1" fill-rule="nonzero"/><path fill="#b1642b" d="M 701.023438 117.105469 C 711.710938 115.472656 722.097656 113.738281 730.671875 106.5 C 732.132812 108.988281 733.007812 110.832031 731.519531 113.316406 C 730.042969 115.773438 731.070312 117.464844 733.664062 118.511719 C 735.503906 119.257812 737.222656 120.347656 738.917969 121.40625 C 741.097656 122.761719 743.171875 123.449219 745.195312 120.804688 C 744.976562 125.136719 740.917969 127.742188 735.144531 127.609375 C 732.820312 121.3125 730.035156 119.664062 722.816406 121.382812 C 716.519531 122.882812 710.375 125.042969 704.164062 126.910156 C 703.121094 127.222656 702.082031 127.546875 700.550781 128.011719 C 700.722656 124.0625 700.875 120.5625 701.023438 117.105469 " fill-opacity="1" fill-rule="nonzero"/><path fill="#b1642b" d="M 655.234375 192.40625 C 662.308594 190.664062 669.367188 188.855469 676.472656 187.269531 C 677.289062 187.085938 678.375 188.089844 679.257812 189.035156 C 676.152344 188.570312 674.9375 190.386719 674.015625 192.578125 C 671.921875 197.523438 671.332031 202.507812 673.457031 207.648438 C 673.886719 208.699219 673.621094 210.03125 673.683594 211.226562 C 672.140625 210.964844 670.304688 211.121094 669.148438 210.308594 C 668.046875 209.539062 666.886719 207.640625 667.070312 206.441406 C 667.972656 200.488281 663 199.296875 659.699219 196.746094 C 658.148438 195.539062 656.511719 194.449219 654.90625 193.300781 C 655.015625 193.003906 655.125 192.707031 655.234375 192.40625 " fill-opacity="1" fill-rule="nonzero"/><path fill="#b1642b" d="M 680.070312 191.753906 C 681.460938 195.339844 682.847656 198.929688 684.246094 202.515625 C 686.058594 207.175781 686.664062 207.429688 691.121094 205.410156 C 691.578125 205.207031 692.054688 205.039062 693.433594 204.488281 C 693.117188 206.847656 693.308594 208.925781 692.53125 210.523438 C 690.660156 214.335938 689.160156 218.066406 689.820312 222.457031 C 689.992188 223.582031 689.253906 224.84375 688.929688 226.046875 C 688.613281 226.019531 688.300781 225.992188 687.984375 225.972656 C 687.984375 225.058594 687.777344 224.089844 688.023438 223.25 C 689.28125 218.988281 687.664062 215.269531 686.011719 211.539062 C 685.726562 210.902344 685.46875 209.878906 684.992188 209.742188 C 679.367188 208.078125 680.449219 202.71875 679.125 198.84375 C 678.394531 196.703125 678.992188 194.113281 678.992188 191.722656 C 679.351562 191.726562 679.710938 191.746094 680.070312 191.753906 " fill-opacity="1" fill-rule="nonzero"/><path fill="#b1642b" d="M 728.492188 135.777344 C 727.386719 132.304688 726.289062 128.832031 724.929688 124.542969 C 726.984375 124.734375 728.859375 124.46875 730.171875 125.199219 C 730.9375 125.625 731.117188 127.679688 731.011719 128.953125 C 730.824219 131.234375 730.222656 133.480469 729.792969 135.746094 C 729.359375 135.757812 728.921875 135.769531 728.492188 135.777344 " fill-opacity="1" fill-rule="nonzero"/><path fill="#b1642b" d="M 681.695312 184.84375 C 684.835938 190.230469 687.96875 195.621094 691.308594 201.351562 C 690.609375 201.734375 689.554688 202.3125 688.136719 203.085938 C 685.730469 196.820312 683.460938 190.914062 681.195312 185.003906 C 681.363281 184.949219 681.527344 184.894531 681.695312 184.84375 " fill-opacity="1" fill-rule="nonzero"/><path fill="#b1642b" d="M 675.921875 206.65625 C 675.554688 204.160156 675.195312 201.664062 674.832031 199.171875 C 675.292969 199.097656 675.753906 199.027344 676.214844 198.953125 C 676.628906 201.492188 677.035156 204.023438 677.445312 206.558594 C 676.933594 206.589844 676.429688 206.621094 675.921875 206.65625 " fill-opacity="1" fill-rule="nonzero"/><path fill="#b1642b" d="M 616.015625 190.449219 L 615.929688 190.574219 C 615.929688 190.574219 615.859375 190.671875 615.855469 190.671875 C 615.855469 190.671875 616.015625 190.449219 616.015625 190.449219 " fill-opacity="1" fill-rule="nonzero"/><g clip-path="url(#aa6cbe7aa6)"><path fill="#181818" d="M 538.933594 305.675781 C 534.367188 306.035156 530.585938 302.257812 530.945312 297.691406 C 531.230469 294.097656 534.140625 291.191406 537.730469 290.90625 C 542.296875 290.546875 546.074219 294.328125 545.714844 298.890625 C 545.433594 302.484375 542.523438 305.394531 538.933594 305.675781 Z M 538.105469 283.476562 C 529.609375 283.601562 523.109375 290.976562 523.546875 299.464844 C 524.191406 312.007812 534.914062 324.273438 537.683594 327.246094 C 538.035156 327.621094 538.628906 327.621094 538.980469 327.242188 C 541.839844 324.175781 553.148438 311.234375 553.148438 298.292969 C 553.148438 290.035156 546.390625 283.355469 538.105469 283.476562 " fill-opacity="1" fill-rule="nonzero"/></g><g clip-path="url(#4dd5404041)"><path fill="#181818" d="M 688.621094 98.648438 C 684.054688 99.007812 680.273438 95.226562 680.632812 90.664062 C 680.917969 87.070312 683.828125 84.160156 687.417969 83.878906 C 691.984375 83.519531 695.761719 87.296875 695.402344 91.863281 C 695.121094 95.453125 692.210938 98.363281 688.621094 98.648438 Z M 687.792969 76.449219 C 679.296875 76.574219 672.796875 83.949219 673.234375 92.433594 C 673.878906 104.980469 684.601562 117.246094 687.371094 120.214844 C 687.722656 120.59375 688.316406 120.589844 688.667969 120.214844 C 691.527344 117.148438 702.835938 104.207031 702.835938 91.261719 C 702.835938 83.007812 696.078125 76.328125 687.792969 76.449219 " fill-opacity="1" fill-rule="nonzero"/></g></svg>