<svg xmlns="http://www.w3.org/2000/svg" xmlns:xlink="http://www.w3.org/1999/xlink" width="1080" zoomAndPan="magnify" viewBox="0 0 810 386.250002" height="515" preserveAspectRatio="xMidYMid meet" version="1.0"><defs><clipPath id="5fc0ca3fa3"><path d="M 0.785156 0 L 809 0 L 809 384.753906 L 0.785156 384.753906 Z M 0.785156 0 " clip-rule="nonzero"/></clipPath><clipPath id="ee205daaef"><path d="M 0.785156 0 L 808.734375 0 L 808.734375 384.753906 L 0.785156 384.753906 Z M 0.785156 0 " clip-rule="nonzero"/></clipPath><clipPath id="f903f62aa6"><rect x="0" width="809" y="0" height="385"/></clipPath></defs><g clip-path="url(#5fc0ca3fa3)"><g transform="matrix(1, 0, 0, 1, 0, -0.00000000000000329)"><g clip-path="url(#f903f62aa6)"><g clip-path="url(#ee205daaef)"><path fill="#b1642b" d="M 17.386719 125.054688 C 17.40625 125.046875 17.421875 125.042969 17.4375 125.035156 L 351.492188 2.238281 C 355.566406 0.742188 359.957031 0.316406 364.242188 1 L 786.914062 68.59375 C 786.917969 68.59375 786.921875 68.59375 786.929688 68.59375 L 787.027344 68.609375 C 787.429688 68.675781 787.78125 68.753906 788.085938 68.839844 C 793.277344 69.902344 798.078125 72.539062 801.730469 76.535156 C 806.96875 82.265625 809.292969 90.078125 808.039062 97.738281 L 779.214844 273.746094 C 777.515625 284.121094 769.585938 292.371094 759.285156 294.480469 L 676.503906 311.4375 C 668.695312 353.136719 632.042969 384.804688 588.109375 384.804688 C 550.882812 384.804688 518.867188 362.074219 505.210938 329.761719 L 274.449219 329.761719 C 260.792969 362.074219 228.777344 384.804688 191.550781 384.804688 C 149.457031 384.804688 114.035156 355.734375 104.273438 316.617188 L 19.675781 294.148438 C 8.570312 291.199219 0.835938 281.140625 0.835938 269.648438 L 0.835938 148.824219 C 0.835938 137.984375 7.671875 128.648438 17.386719 125.054688 Z M 362.773438 52.105469 L 204.078125 110.441406 L 563.617188 84.222656 Z M 588.109375 334.109375 C 609.757812 334.109375 627.367188 316.496094 627.367188 294.847656 C 627.367188 273.199219 609.757812 255.589844 588.109375 255.589844 C 566.460938 255.589844 548.851562 273.199219 548.851562 294.847656 C 548.851562 316.496094 566.460938 334.109375 588.109375 334.109375 Z M 191.550781 334.109375 C 213.199219 334.109375 230.808594 316.496094 230.808594 294.847656 C 230.808594 273.199219 213.199219 255.589844 191.550781 255.589844 C 169.902344 255.589844 152.289062 273.199219 152.289062 294.847656 C 152.289062 316.496094 169.902344 334.109375 191.550781 334.109375 Z M 51.53125 250.15625 L 106.765625 264.828125 C 119.152344 229.945312 152.472656 204.894531 191.550781 204.894531 C 235.765625 204.894531 272.605469 236.96875 280.089844 279.066406 L 499.570312 279.066406 C 507.054688 236.96875 543.894531 204.894531 588.109375 204.894531 C 625.644531 204.894531 657.867188 228.011719 671.332031 260.75 L 732.007812 248.320312 L 752.816406 121.257812 L 51.53125 172.394531 Z M 51.53125 250.15625 " fill-opacity="1" fill-rule="nonzero"/></g></g></g></g></svg>